<mxfile host="Electron" modified="2024-03-14T09:04:40.492Z" agent="Mozilla/5.0 (Windows NT 10.0; Win64; x64) AppleWebKit/537.36 (KHTML, like Gecko) draw.io/23.1.5 Chrome/120.0.6099.109 Electron/28.1.0 Safari/537.36" etag="p_vDrhPNodXYY-Gdkun1" version="23.1.5" type="device">
  <diagram name="Page-1" id="12e1b939-464a-85fe-373e-61e167be1490">
    <mxGraphModel dx="4705.5" dy="1296" grid="0" gridSize="10" guides="1" tooltips="1" connect="1" arrows="1" fold="1" page="1" pageScale="1.5" pageWidth="1169" pageHeight="826" background="none" math="0" shadow="0">
      <root>
        <mxCell id="0" />
        <mxCell id="1" parent="0" />
        <mxCell id="60da8b9f42644d3a-2" value="" style="whiteSpace=wrap;html=1;rounded=1;shadow=0;strokeWidth=8;fontSize=20;align=center;fillColor=#FF3399;strokeColor=#FFFFFF;" parent="1" vertex="1">
          <mxGeometry x="316" y="405" width="280" height="430" as="geometry" />
        </mxCell>
        <mxCell id="60da8b9f42644d3a-3" value="&lt;font style=&quot;font-size: 24px;&quot;&gt;Unmerge Cells&lt;/font&gt;" style="text;html=1;strokeColor=none;fillColor=none;align=center;verticalAlign=middle;whiteSpace=wrap;rounded=0;shadow=0;fontSize=27;fontColor=#FFFFFF;fontStyle=1" parent="1" vertex="1">
          <mxGeometry x="316" y="425" width="280" height="60" as="geometry" />
        </mxCell>
        <mxCell id="60da8b9f42644d3a-4" value="&lt;b&gt;&lt;font style=&quot;font-size: 18px;&quot;&gt;Unmerge Cells&lt;/font&gt;&lt;/b&gt;" style="text;html=1;strokeColor=none;fillColor=none;align=center;verticalAlign=middle;whiteSpace=wrap;rounded=0;shadow=0;fontSize=14;fontColor=#FFFFFF;" parent="1" vertex="1">
          <mxGeometry x="316" y="725" width="280" height="90" as="geometry" />
        </mxCell>
        <mxCell id="60da8b9f42644d3a-6" value="" style="line;strokeWidth=2;html=1;rounded=0;shadow=0;fontSize=27;align=center;fillColor=none;strokeColor=#FFFFFF;" parent="1" vertex="1">
          <mxGeometry x="336" y="485" width="240" height="10" as="geometry" />
        </mxCell>
        <mxCell id="60da8b9f42644d3a-7" value="" style="line;strokeWidth=2;html=1;rounded=0;shadow=0;fontSize=27;align=center;fillColor=none;strokeColor=#FFFFFF;" parent="1" vertex="1">
          <mxGeometry x="336" y="705" width="240" height="10" as="geometry" />
        </mxCell>
        <mxCell id="60da8b9f42644d3a-8" value="Case 1" style="ellipse;whiteSpace=wrap;html=1;rounded=0;shadow=0;strokeWidth=6;fontSize=14;align=center;fillColor=#BFB4A9;strokeColor=#FFFFFF;fontColor=#FFFFFF;" parent="1" vertex="1">
          <mxGeometry x="259" y="545" width="115" height="115" as="geometry" />
        </mxCell>
        <mxCell id="60da8b9f42644d3a-9" value="" style="html=1;shadow=0;dashed=0;align=center;verticalAlign=middle;shape=mxgraph.arrows2.stylisedArrow;dy=0.6;dx=40;notch=15;feather=0.4;rounded=0;strokeWidth=1;fontSize=27;strokeColor=none;fillColor=#fff2cc;" parent="1" vertex="1">
          <mxGeometry x="406" y="573" width="100" height="60" as="geometry" />
        </mxCell>
        <mxCell id="60da8b9f42644d3a-17" value="" style="whiteSpace=wrap;html=1;rounded=1;shadow=0;strokeWidth=8;fontSize=20;align=center;fillColor=#FF8000;strokeColor=#FFFFFF;" parent="1" vertex="1">
          <mxGeometry x="596" y="405" width="280" height="430" as="geometry" />
        </mxCell>
        <mxCell id="60da8b9f42644d3a-18" value="&lt;font style=&quot;font-size: 24px;&quot;&gt;Extract Data based on Target Labels&lt;/font&gt;" style="text;html=1;strokeColor=none;fillColor=none;align=center;verticalAlign=middle;whiteSpace=wrap;rounded=0;shadow=0;fontSize=27;fontColor=#FFFFFF;fontStyle=1" parent="1" vertex="1">
          <mxGeometry x="596" y="425" width="280" height="60" as="geometry" />
        </mxCell>
        <mxCell id="60da8b9f42644d3a-19" value="&lt;div style=&quot;&quot;&gt;&lt;span style=&quot;background-color: initial;&quot;&gt;&lt;b&gt;&lt;font style=&quot;font-size: 18px;&quot;&gt;Extract Data&amp;nbsp;&lt;/font&gt;&lt;/b&gt;&lt;/span&gt;&lt;/div&gt;&lt;span style=&quot;background-color: initial;&quot;&gt;&lt;div style=&quot;&quot;&gt;&lt;span style=&quot;background-color: initial;&quot;&gt;&lt;b&gt;&lt;font size=&quot;3&quot;&gt;Move Extracted Values&lt;/font&gt;&lt;/b&gt;&lt;/span&gt;&lt;/div&gt;&lt;/span&gt;" style="text;html=1;strokeColor=none;fillColor=none;align=center;verticalAlign=middle;whiteSpace=wrap;rounded=0;shadow=0;fontSize=14;fontColor=#FFFFFF;" parent="1" vertex="1">
          <mxGeometry x="596" y="725" width="280" height="90" as="geometry" />
        </mxCell>
        <mxCell id="60da8b9f42644d3a-20" value="" style="line;strokeWidth=2;html=1;rounded=0;shadow=0;fontSize=27;align=center;fillColor=none;strokeColor=#FFFFFF;" parent="1" vertex="1">
          <mxGeometry x="616" y="485" width="240" height="10" as="geometry" />
        </mxCell>
        <mxCell id="60da8b9f42644d3a-21" value="" style="line;strokeWidth=2;html=1;rounded=0;shadow=0;fontSize=27;align=center;fillColor=none;strokeColor=#FFFFFF;" parent="1" vertex="1">
          <mxGeometry x="616" y="705" width="240" height="10" as="geometry" />
        </mxCell>
        <mxCell id="60da8b9f42644d3a-22" value="Case 2" style="ellipse;whiteSpace=wrap;html=1;rounded=0;shadow=0;strokeWidth=6;fontSize=14;align=center;fillColor=#397DAA;strokeColor=#FFFFFF;fontColor=#FFFFFF;" parent="1" vertex="1">
          <mxGeometry x="539" y="545" width="115" height="115" as="geometry" />
        </mxCell>
        <mxCell id="60da8b9f42644d3a-23" value="" style="html=1;shadow=0;dashed=0;align=center;verticalAlign=middle;shape=mxgraph.arrows2.stylisedArrow;dy=0.6;dx=40;notch=15;feather=0.4;rounded=0;strokeWidth=1;fontSize=27;strokeColor=none;fillColor=#fff2cc;" parent="1" vertex="1">
          <mxGeometry x="686" y="573" width="100" height="60" as="geometry" />
        </mxCell>
        <mxCell id="60da8b9f42644d3a-24" value="" style="whiteSpace=wrap;html=1;rounded=1;shadow=0;strokeWidth=8;fontSize=20;align=center;fillColor=#007FFF;strokeColor=#FFFFFF;" parent="1" vertex="1">
          <mxGeometry x="876" y="405" width="280" height="430" as="geometry" />
        </mxCell>
        <mxCell id="60da8b9f42644d3a-25" value="&lt;font style=&quot;font-size: 24px;&quot;&gt;Extract Values/Names&lt;/font&gt;" style="text;html=1;strokeColor=none;fillColor=none;align=center;verticalAlign=middle;whiteSpace=wrap;rounded=0;shadow=0;fontSize=27;fontColor=#FFFFFF;fontStyle=1" parent="1" vertex="1">
          <mxGeometry x="876" y="425" width="280" height="60" as="geometry" />
        </mxCell>
        <mxCell id="60da8b9f42644d3a-26" value="&lt;b&gt;&lt;font style=&quot;font-size: 18px;&quot;&gt;Extract Names&lt;br&gt;&amp;nbsp;Write Names to Columns &lt;br&gt;Delete Unnecessary Rows&lt;/font&gt;&lt;/b&gt;" style="text;html=1;strokeColor=none;fillColor=none;align=center;verticalAlign=middle;whiteSpace=wrap;rounded=0;shadow=0;fontSize=14;fontColor=#FFFFFF;" parent="1" vertex="1">
          <mxGeometry x="876" y="725" width="280" height="90" as="geometry" />
        </mxCell>
        <mxCell id="60da8b9f42644d3a-27" value="" style="line;strokeWidth=2;html=1;rounded=0;shadow=0;fontSize=27;align=center;fillColor=none;strokeColor=#FFFFFF;" parent="1" vertex="1">
          <mxGeometry x="896" y="485" width="240" height="10" as="geometry" />
        </mxCell>
        <mxCell id="60da8b9f42644d3a-28" value="" style="line;strokeWidth=2;html=1;rounded=0;shadow=0;fontSize=27;align=center;fillColor=none;strokeColor=#FFFFFF;" parent="1" vertex="1">
          <mxGeometry x="896" y="705" width="240" height="10" as="geometry" />
        </mxCell>
        <mxCell id="60da8b9f42644d3a-29" value="Case 3" style="ellipse;whiteSpace=wrap;html=1;rounded=0;shadow=0;strokeWidth=6;fontSize=14;align=center;fillColor=#EF9353;strokeColor=#FFFFFF;fontColor=#FFFFFF;" parent="1" vertex="1">
          <mxGeometry x="819" y="545" width="115" height="115" as="geometry" />
        </mxCell>
        <mxCell id="60da8b9f42644d3a-30" value="" style="html=1;shadow=0;dashed=0;align=center;verticalAlign=middle;shape=mxgraph.arrows2.stylisedArrow;dy=0.6;dx=40;notch=15;feather=0.4;rounded=0;strokeWidth=1;fontSize=27;strokeColor=none;fillColor=#fff2cc;" parent="1" vertex="1">
          <mxGeometry x="966" y="573" width="100" height="60" as="geometry" />
        </mxCell>
        <mxCell id="60da8b9f42644d3a-31" value="" style="whiteSpace=wrap;html=1;rounded=1;shadow=0;strokeWidth=8;fontSize=20;align=center;fillColor=#FF0080;strokeColor=#FFFFFF;" parent="1" vertex="1">
          <mxGeometry x="310" y="910" width="280" height="430" as="geometry" />
        </mxCell>
        <mxCell id="60da8b9f42644d3a-32" value="&lt;font style=&quot;font-size: 24px;&quot;&gt;Remove Empty Rows and Columns&lt;/font&gt;" style="text;html=1;strokeColor=none;fillColor=none;align=center;verticalAlign=middle;whiteSpace=wrap;rounded=0;shadow=0;fontSize=27;fontColor=#FFFFFF;fontStyle=1" parent="1" vertex="1">
          <mxGeometry x="310" y="930" width="280" height="60" as="geometry" />
        </mxCell>
        <mxCell id="60da8b9f42644d3a-33" value="&lt;b&gt;&lt;font style=&quot;font-size: 18px;&quot;&gt;Remove Empty Rows &lt;br&gt;Remove Empty Columns&lt;/font&gt;&lt;/b&gt;" style="text;html=1;strokeColor=none;fillColor=none;align=center;verticalAlign=middle;whiteSpace=wrap;rounded=0;shadow=0;fontSize=14;fontColor=#FFFFFF;" parent="1" vertex="1">
          <mxGeometry x="310" y="1230" width="280" height="90" as="geometry" />
        </mxCell>
        <mxCell id="60da8b9f42644d3a-34" value="" style="line;strokeWidth=2;html=1;rounded=0;shadow=0;fontSize=27;align=center;fillColor=none;strokeColor=#FFFFFF;" parent="1" vertex="1">
          <mxGeometry x="330" y="990" width="240" height="10" as="geometry" />
        </mxCell>
        <mxCell id="60da8b9f42644d3a-35" value="" style="line;strokeWidth=2;html=1;rounded=0;shadow=0;fontSize=27;align=center;fillColor=none;strokeColor=#FFFFFF;" parent="1" vertex="1">
          <mxGeometry x="330" y="1210" width="240" height="10" as="geometry" />
        </mxCell>
        <mxCell id="60da8b9f42644d3a-36" value="Case 4" style="ellipse;whiteSpace=wrap;html=1;rounded=0;shadow=0;strokeWidth=6;fontSize=14;align=center;fillColor=#68B85C;strokeColor=#FFFFFF;fontColor=#FFFFFF;" parent="1" vertex="1">
          <mxGeometry x="259" y="1050.5" width="115" height="115" as="geometry" />
        </mxCell>
        <mxCell id="60da8b9f42644d3a-37" value="" style="html=1;shadow=0;dashed=0;align=center;verticalAlign=middle;shape=mxgraph.arrows2.stylisedArrow;dy=0.6;dx=40;notch=15;feather=0.4;rounded=0;strokeWidth=1;fontSize=27;strokeColor=none;fillColor=#fff2cc;" parent="1" vertex="1">
          <mxGeometry x="400" y="1078" width="100" height="60" as="geometry" />
        </mxCell>
        <mxCell id="S_JOYuZOrKQrCzu9forX-1" value="" style="whiteSpace=wrap;html=1;rounded=1;shadow=0;strokeWidth=8;fontSize=20;align=center;fillColor=#FF8000;strokeColor=#FFFFFF;" vertex="1" parent="1">
          <mxGeometry x="600" y="910" width="280" height="430" as="geometry" />
        </mxCell>
        <mxCell id="S_JOYuZOrKQrCzu9forX-2" value="&lt;font style=&quot;font-size: 24px;&quot;&gt;Modify Headers and Delete Rows&lt;/font&gt;" style="text;html=1;strokeColor=none;fillColor=none;align=center;verticalAlign=middle;whiteSpace=wrap;rounded=0;shadow=0;fontSize=27;fontColor=#FFFFFF;fontStyle=1" vertex="1" parent="1">
          <mxGeometry x="600" y="930" width="280" height="60" as="geometry" />
        </mxCell>
        <mxCell id="S_JOYuZOrKQrCzu9forX-3" value="&lt;b&gt;&lt;font style=&quot;font-size: 18px;&quot;&gt;Modify Headers&amp;nbsp;&lt;br&gt;&amp;nbsp;Delete Rows with Specific Values&lt;/font&gt;&lt;/b&gt;" style="text;html=1;strokeColor=none;fillColor=none;align=center;verticalAlign=middle;whiteSpace=wrap;rounded=0;shadow=0;fontSize=14;fontColor=#FFFFFF;" vertex="1" parent="1">
          <mxGeometry x="600" y="1230" width="280" height="90" as="geometry" />
        </mxCell>
        <mxCell id="S_JOYuZOrKQrCzu9forX-4" value="" style="line;strokeWidth=2;html=1;rounded=0;shadow=0;fontSize=27;align=center;fillColor=none;strokeColor=#FFFFFF;" vertex="1" parent="1">
          <mxGeometry x="620" y="990" width="240" height="10" as="geometry" />
        </mxCell>
        <mxCell id="S_JOYuZOrKQrCzu9forX-5" value="" style="line;strokeWidth=2;html=1;rounded=0;shadow=0;fontSize=27;align=center;fillColor=none;strokeColor=#FFFFFF;" vertex="1" parent="1">
          <mxGeometry x="620" y="1210" width="240" height="10" as="geometry" />
        </mxCell>
        <mxCell id="S_JOYuZOrKQrCzu9forX-6" value="Case 5" style="ellipse;whiteSpace=wrap;html=1;rounded=0;shadow=0;strokeWidth=6;fontSize=14;align=center;fillColor=#BFB4A9;strokeColor=#FFFFFF;fontColor=#FFFFFF;" vertex="1" parent="1">
          <mxGeometry x="543" y="1050" width="115" height="115" as="geometry" />
        </mxCell>
        <mxCell id="S_JOYuZOrKQrCzu9forX-7" value="" style="html=1;shadow=0;dashed=0;align=center;verticalAlign=middle;shape=mxgraph.arrows2.stylisedArrow;dy=0.6;dx=40;notch=15;feather=0.4;rounded=0;strokeWidth=1;fontSize=27;strokeColor=none;fillColor=#fff2cc;" vertex="1" parent="1">
          <mxGeometry x="690" y="1078" width="100" height="60" as="geometry" />
        </mxCell>
        <mxCell id="S_JOYuZOrKQrCzu9forX-8" value="" style="whiteSpace=wrap;html=1;rounded=1;shadow=0;strokeWidth=8;fontSize=20;align=center;fillColor=#007FFF;strokeColor=#FFFFFF;" vertex="1" parent="1">
          <mxGeometry x="880" y="910" width="280" height="430" as="geometry" />
        </mxCell>
        <mxCell id="S_JOYuZOrKQrCzu9forX-9" value="&lt;font style=&quot;font-size: 24px;&quot;&gt;Move Values to Specified Columns&lt;/font&gt;" style="text;html=1;strokeColor=none;fillColor=none;align=center;verticalAlign=middle;whiteSpace=wrap;rounded=0;shadow=0;fontSize=27;fontColor=#FFFFFF;fontStyle=1" vertex="1" parent="1">
          <mxGeometry x="880" y="930" width="280" height="60" as="geometry" />
        </mxCell>
        <mxCell id="S_JOYuZOrKQrCzu9forX-10" value="&lt;div style=&quot;&quot;&gt;&lt;b&gt;&lt;font style=&quot;font-size: 18px;&quot;&gt;Move Values Dynamically&amp;nbsp;&lt;/font&gt;&lt;/b&gt;&lt;/div&gt;&lt;div style=&quot;&quot;&gt;&lt;b&gt;&lt;font size=&quot;3&quot;&gt;Delete Rows with Target Value&lt;/font&gt;&lt;/b&gt;&lt;br&gt;&lt;/div&gt;" style="text;html=1;strokeColor=none;fillColor=none;align=center;verticalAlign=middle;whiteSpace=wrap;rounded=0;shadow=0;fontSize=14;fontColor=#FFFFFF;" vertex="1" parent="1">
          <mxGeometry x="880" y="1230" width="280" height="90" as="geometry" />
        </mxCell>
        <mxCell id="S_JOYuZOrKQrCzu9forX-11" value="" style="line;strokeWidth=2;html=1;rounded=0;shadow=0;fontSize=27;align=center;fillColor=none;strokeColor=#FFFFFF;" vertex="1" parent="1">
          <mxGeometry x="900" y="990" width="240" height="10" as="geometry" />
        </mxCell>
        <mxCell id="S_JOYuZOrKQrCzu9forX-12" value="" style="line;strokeWidth=2;html=1;rounded=0;shadow=0;fontSize=27;align=center;fillColor=none;strokeColor=#FFFFFF;" vertex="1" parent="1">
          <mxGeometry x="900" y="1210" width="240" height="10" as="geometry" />
        </mxCell>
        <mxCell id="S_JOYuZOrKQrCzu9forX-13" value="Case 6" style="ellipse;whiteSpace=wrap;html=1;rounded=0;shadow=0;strokeWidth=6;fontSize=14;align=center;fillColor=#397DAA;strokeColor=#FFFFFF;fontColor=#FFFFFF;" vertex="1" parent="1">
          <mxGeometry x="823" y="1050" width="115" height="115" as="geometry" />
        </mxCell>
        <mxCell id="S_JOYuZOrKQrCzu9forX-14" value="" style="html=1;shadow=0;dashed=0;align=center;verticalAlign=middle;shape=mxgraph.arrows2.stylisedArrow;dy=0.6;dx=40;notch=15;feather=0.4;rounded=0;strokeWidth=1;fontSize=27;strokeColor=none;fillColor=#fff2cc;" vertex="1" parent="1">
          <mxGeometry x="970" y="1078" width="100" height="60" as="geometry" />
        </mxCell>
        <mxCell id="S_JOYuZOrKQrCzu9forX-75" value="" style="edgeStyle=orthogonalEdgeStyle;rounded=0;orthogonalLoop=1;jettySize=auto;html=1;entryX=0;entryY=0.5;entryDx=0;entryDy=0;" edge="1" parent="1" source="S_JOYuZOrKQrCzu9forX-58" target="60da8b9f42644d3a-8">
          <mxGeometry relative="1" as="geometry">
            <mxPoint x="200.00000000000045" y="632.5" as="targetPoint" />
          </mxGeometry>
        </mxCell>
        <mxCell id="S_JOYuZOrKQrCzu9forX-58" value="&lt;font style=&quot;font-size: 24px;&quot;&gt;Unstructured &lt;br&gt;excel data&lt;/font&gt;" style="ellipse;whiteSpace=wrap;html=1;rounded=0;shadow=0;strokeWidth=6;fontSize=14;align=center;fillColor=#666666;strokeColor=#FFFFFF;fontColor=#FFFFFF;" vertex="1" parent="1">
          <mxGeometry x="-200" y="1002.5" width="225" height="210" as="geometry" />
        </mxCell>
        <mxCell id="S_JOYuZOrKQrCzu9forX-76" value="&lt;font style=&quot;font-size: 24px;&quot;&gt;Structured &lt;br&gt;excel data&lt;/font&gt;" style="ellipse;whiteSpace=wrap;html=1;rounded=0;shadow=0;strokeWidth=6;fontSize=14;align=center;fillColor=#666666;strokeColor=#FFFFFF;fontColor=#FFFFFF;" vertex="1" parent="1">
          <mxGeometry x="1350" y="1003" width="225" height="210" as="geometry" />
        </mxCell>
        <mxCell id="S_JOYuZOrKQrCzu9forX-82" value="" style="whiteSpace=wrap;html=1;rounded=1;shadow=0;strokeWidth=8;fontSize=20;align=center;fillColor=#007FFF;strokeColor=#FFFFFF;" vertex="1" parent="1">
          <mxGeometry x="880" y="1390" width="280" height="430" as="geometry" />
        </mxCell>
        <mxCell id="S_JOYuZOrKQrCzu9forX-83" value="" style="whiteSpace=wrap;html=1;rounded=1;shadow=0;strokeWidth=8;fontSize=20;align=center;fillColor=#FF0080;strokeColor=#FFFFFF;" vertex="1" parent="1">
          <mxGeometry x="316" y="1390" width="280" height="430" as="geometry" />
        </mxCell>
        <mxCell id="S_JOYuZOrKQrCzu9forX-84" value="&lt;font style=&quot;font-size: 24px;&quot;&gt;Filter Excel Files&lt;/font&gt;" style="text;html=1;strokeColor=none;fillColor=none;align=center;verticalAlign=middle;whiteSpace=wrap;rounded=0;shadow=0;fontSize=27;fontColor=#FFFFFF;fontStyle=1" vertex="1" parent="1">
          <mxGeometry x="316" y="1410" width="280" height="60" as="geometry" />
        </mxCell>
        <mxCell id="S_JOYuZOrKQrCzu9forX-85" value="&lt;b&gt;&lt;font style=&quot;font-size: 18px;&quot;&gt;Filter Based on Specified Columns&amp;nbsp;&lt;br&gt;&amp;nbsp;Remove Empty Rows&lt;/font&gt;&lt;/b&gt;" style="text;html=1;strokeColor=none;fillColor=none;align=center;verticalAlign=middle;whiteSpace=wrap;rounded=0;shadow=0;fontSize=14;fontColor=#FFFFFF;" vertex="1" parent="1">
          <mxGeometry x="316" y="1710" width="280" height="90" as="geometry" />
        </mxCell>
        <mxCell id="S_JOYuZOrKQrCzu9forX-113" value="" style="edgeStyle=orthogonalEdgeStyle;rounded=0;orthogonalLoop=1;jettySize=auto;html=1;" edge="1" parent="1" source="S_JOYuZOrKQrCzu9forX-86" target="S_JOYuZOrKQrCzu9forX-89">
          <mxGeometry relative="1" as="geometry" />
        </mxCell>
        <mxCell id="S_JOYuZOrKQrCzu9forX-86" value="" style="line;strokeWidth=2;html=1;rounded=0;shadow=0;fontSize=27;align=center;fillColor=none;strokeColor=#FFFFFF;" vertex="1" parent="1">
          <mxGeometry x="336" y="1470" width="240" height="10" as="geometry" />
        </mxCell>
        <mxCell id="S_JOYuZOrKQrCzu9forX-87" value="" style="edgeStyle=orthogonalEdgeStyle;rounded=0;orthogonalLoop=1;jettySize=auto;html=1;" edge="1" parent="1" source="S_JOYuZOrKQrCzu9forX-88">
          <mxGeometry relative="1" as="geometry">
            <mxPoint x="456" y="1780" as="targetPoint" />
          </mxGeometry>
        </mxCell>
        <mxCell id="S_JOYuZOrKQrCzu9forX-88" value="" style="line;strokeWidth=2;html=1;rounded=0;shadow=0;fontSize=27;align=center;fillColor=none;strokeColor=#FFFFFF;" vertex="1" parent="1">
          <mxGeometry x="336" y="1690" width="240" height="10" as="geometry" />
        </mxCell>
        <mxCell id="S_JOYuZOrKQrCzu9forX-89" value="" style="html=1;shadow=0;dashed=0;align=center;verticalAlign=middle;shape=mxgraph.arrows2.stylisedArrow;dy=0.6;dx=40;notch=15;feather=0.4;rounded=0;strokeWidth=1;fontSize=27;strokeColor=none;fillColor=#fff2cc;" vertex="1" parent="1">
          <mxGeometry x="406" y="1558" width="100" height="60" as="geometry" />
        </mxCell>
        <mxCell id="S_JOYuZOrKQrCzu9forX-90" value="" style="whiteSpace=wrap;html=1;rounded=1;shadow=0;strokeWidth=8;fontSize=20;align=center;fillColor=#FF8000;strokeColor=#FFFFFF;" vertex="1" parent="1">
          <mxGeometry x="596" y="1390" width="280" height="430" as="geometry" />
        </mxCell>
        <mxCell id="S_JOYuZOrKQrCzu9forX-91" value="&lt;font style=&quot;font-size: 24px;&quot;&gt;Merge Excel Files&lt;/font&gt;" style="text;html=1;strokeColor=none;fillColor=none;align=center;verticalAlign=middle;whiteSpace=wrap;rounded=0;shadow=0;fontSize=27;fontColor=#FFFFFF;fontStyle=1" vertex="1" parent="1">
          <mxGeometry x="596" y="1410" width="280" height="60" as="geometry" />
        </mxCell>
        <mxCell id="S_JOYuZOrKQrCzu9forX-92" value="&lt;b&gt;&lt;font style=&quot;font-size: 18px;&quot;&gt;Merge Files&amp;nbsp;&lt;br&gt;&amp;nbsp;Standardize Data Format&amp;nbsp;&lt;br&gt;&amp;nbsp;Save Merged Excel File&lt;br&gt;Save Data as CSV File&lt;/font&gt;&lt;/b&gt;" style="text;html=1;strokeColor=none;fillColor=none;align=center;verticalAlign=middle;whiteSpace=wrap;rounded=0;shadow=0;fontSize=14;fontColor=#FFFFFF;" vertex="1" parent="1">
          <mxGeometry x="596" y="1710" width="280" height="90" as="geometry" />
        </mxCell>
        <mxCell id="S_JOYuZOrKQrCzu9forX-93" value="" style="line;strokeWidth=2;html=1;rounded=0;shadow=0;fontSize=27;align=center;fillColor=none;strokeColor=#FFFFFF;" vertex="1" parent="1">
          <mxGeometry x="616" y="1470" width="240" height="10" as="geometry" />
        </mxCell>
        <mxCell id="S_JOYuZOrKQrCzu9forX-94" value="" style="line;strokeWidth=2;html=1;rounded=0;shadow=0;fontSize=27;align=center;fillColor=none;strokeColor=#FFFFFF;" vertex="1" parent="1">
          <mxGeometry x="616" y="1690" width="240" height="10" as="geometry" />
        </mxCell>
        <mxCell id="S_JOYuZOrKQrCzu9forX-95" value="Case 8" style="ellipse;whiteSpace=wrap;html=1;rounded=0;shadow=0;strokeWidth=6;fontSize=14;align=center;fillColor=#68B85C;strokeColor=#FFFFFF;fontColor=#FFFFFF;" vertex="1" parent="1">
          <mxGeometry x="539" y="1530" width="115" height="115" as="geometry" />
        </mxCell>
        <mxCell id="S_JOYuZOrKQrCzu9forX-96" value="" style="html=1;shadow=0;dashed=0;align=center;verticalAlign=middle;shape=mxgraph.arrows2.stylisedArrow;dy=0.6;dx=40;notch=15;feather=0.4;rounded=0;strokeWidth=1;fontSize=27;strokeColor=none;fillColor=#fff2cc;" vertex="1" parent="1">
          <mxGeometry x="686" y="1558" width="100" height="60" as="geometry" />
        </mxCell>
        <mxCell id="S_JOYuZOrKQrCzu9forX-97" value="Case 9" style="ellipse;whiteSpace=wrap;html=1;rounded=0;shadow=0;strokeWidth=6;fontSize=14;align=center;fillColor=#BF639A;strokeColor=#FFFFFF;fontColor=#FFFFFF;" vertex="1" parent="1">
          <mxGeometry x="820" y="1530" width="115" height="115" as="geometry" />
        </mxCell>
        <mxCell id="S_JOYuZOrKQrCzu9forX-98" value="&lt;font style=&quot;font-size: 24px;&quot;&gt;Convert Date Format and Melt DataFrame&lt;/font&gt;" style="text;html=1;strokeColor=none;fillColor=none;align=center;verticalAlign=middle;whiteSpace=wrap;rounded=0;shadow=0;fontSize=27;fontColor=#FFFFFF;fontStyle=1" vertex="1" parent="1">
          <mxGeometry x="890" y="1400" width="280" height="60" as="geometry" />
        </mxCell>
        <mxCell id="S_JOYuZOrKQrCzu9forX-99" value="" style="line;strokeWidth=2;html=1;rounded=0;shadow=0;fontSize=27;align=center;fillColor=none;strokeColor=#FFFFFF;" vertex="1" parent="1">
          <mxGeometry x="910" y="1460" width="240" height="10" as="geometry" />
        </mxCell>
        <mxCell id="S_JOYuZOrKQrCzu9forX-100" value="" style="line;strokeWidth=2;html=1;rounded=0;shadow=0;fontSize=27;align=center;fillColor=none;strokeColor=#FFFFFF;" vertex="1" parent="1">
          <mxGeometry x="910" y="1690" width="240" height="10" as="geometry" />
        </mxCell>
        <mxCell id="S_JOYuZOrKQrCzu9forX-101" value="&lt;b&gt;&lt;font style=&quot;font-size: 18px;&quot;&gt;Convert Date Format&lt;br&gt;Melt DataFrame&lt;/font&gt;&lt;/b&gt;" style="text;html=1;strokeColor=none;fillColor=none;align=center;verticalAlign=middle;whiteSpace=wrap;rounded=0;shadow=0;fontSize=14;fontColor=#FFFFFF;" vertex="1" parent="1">
          <mxGeometry x="895" y="1710" width="280" height="90" as="geometry" />
        </mxCell>
        <mxCell id="S_JOYuZOrKQrCzu9forX-102" value="" style="html=1;shadow=0;dashed=0;align=center;verticalAlign=middle;shape=mxgraph.arrows2.stylisedArrow;dy=0.6;dx=40;notch=15;feather=0.4;rounded=0;strokeWidth=1;fontSize=27;strokeColor=none;fillColor=#fff2cc;" vertex="1" parent="1">
          <mxGeometry x="985" y="1540" width="100" height="60" as="geometry" />
        </mxCell>
        <mxCell id="S_JOYuZOrKQrCzu9forX-20" value="Case 7" style="ellipse;whiteSpace=wrap;html=1;rounded=0;shadow=0;strokeWidth=6;fontSize=14;align=center;fillColor=#EF9353;strokeColor=#FFFFFF;fontColor=#FFFFFF;" vertex="1" parent="1">
          <mxGeometry x="250" y="1530.5" width="115" height="115" as="geometry" />
        </mxCell>
        <mxCell id="S_JOYuZOrKQrCzu9forX-104" value="" style="endArrow=classic;html=1;rounded=0;entryX=0;entryY=0.5;entryDx=0;entryDy=0;" edge="1" parent="1">
          <mxGeometry width="50" height="50" relative="1" as="geometry">
            <mxPoint x="143" y="1110" as="sourcePoint" />
            <mxPoint x="253.00000000001273" y="1588" as="targetPoint" />
            <Array as="points">
              <mxPoint x="143" y="1588" />
            </Array>
          </mxGeometry>
        </mxCell>
        <mxCell id="S_JOYuZOrKQrCzu9forX-105" value="" style="endArrow=classic;html=1;rounded=0;entryX=0;entryY=0.5;entryDx=0;entryDy=0;" edge="1" parent="1" target="60da8b9f42644d3a-36">
          <mxGeometry width="50" height="50" relative="1" as="geometry">
            <mxPoint x="150" y="1108" as="sourcePoint" />
            <mxPoint x="190" y="1078" as="targetPoint" />
          </mxGeometry>
        </mxCell>
        <mxCell id="S_JOYuZOrKQrCzu9forX-106" value="" style="shape=image;verticalLabelPosition=bottom;labelBackgroundColor=default;verticalAlign=top;aspect=fixed;imageAspect=0;image=https://pluspng.com/img-png/excel-logo-png-img-microsoft-excel-logo-in-svg-vector-or-png-file-format-3000x2000.png;" vertex="1" parent="1">
          <mxGeometry x="1250" y="1062.17" width="155" height="103.33" as="geometry" />
        </mxCell>
        <mxCell id="S_JOYuZOrKQrCzu9forX-107" value="" style="shape=image;verticalLabelPosition=bottom;labelBackgroundColor=default;verticalAlign=top;aspect=fixed;imageAspect=0;image=https://pluspng.com/img-png/excel-logo-png-img-microsoft-excel-logo-in-svg-vector-or-png-file-format-3000x2000.png;" vertex="1" parent="1">
          <mxGeometry x="-300" y="1055.8300000000002" width="155" height="103.33" as="geometry" />
        </mxCell>
        <mxCell id="S_JOYuZOrKQrCzu9forX-112" value="" style="html=1;shadow=0;dashed=0;align=center;verticalAlign=middle;shape=mxgraph.arrows2.stylisedArrow;dy=0.6;dx=40;notch=15;feather=0.4;rounded=0;strokeWidth=1;fontSize=27;strokeColor=none;fillColor=#4D4D4D;" vertex="1" parent="1">
          <mxGeometry x="1170" y="1083.84" width="100" height="60" as="geometry" />
        </mxCell>
      </root>
    </mxGraphModel>
  </diagram>
</mxfile>
